<?xml version="1.0" encoding="utf-8" standalone="no"?>
<!DOCTYPE svg PUBLIC "-//W3C//DTD SVG 1.1//EN"
  "http://www.w3.org/Graphics/SVG/1.1/DTD/svg11.dtd">
<!-- Created with matplotlib (http://matplotlib.org/) -->
<svg height="432pt" version="1.1" viewBox="0 0 576 432" width="576pt" xmlns="http://www.w3.org/2000/svg" xmlns:xlink="http://www.w3.org/1999/xlink">
 <defs>
  <style type="text/css">
*{stroke-linecap:square;stroke-linejoin:round;}
  </style>
 </defs>
 <g id="figure_1">
  <g id="patch_1">
   <path d="
M0 432
L576 432
L576 0
L0 0
z
" style="fill:#ffffff;"/>
  </g>
  <g id="axes_1">
   <g id="patch_2">
    <path d="
M72 378
L518.4 378
L518.4 43.2
L72 43.2
z
" style="fill:#ffffff;"/>
   </g>
   <g id="PolyCollection_1">
    <defs>
     <path d="
M72 -109.8
L72 -109.8
L74.2892 -109.8
L76.5785 -109.8
L81.1569 -109.8
L85.7354 -109.8
L90.3138 -109.8
L97.1815 -109.8
L104.049 -109.8
L115.495 -109.8
L126.942 -109.8
L140.677 -109.8
L156.702 -109.8
L177.305 -109.8
L202.486 -109.8
L234.535 -109.8
L271.163 -109.833
L316.948 -110.005
L371.889 -110.625
L438.277 -111.521
L518.4 -114.423
L518.4 -115.936
L518.4 -115.936
L438.277 -112.275
L371.889 -110.976
L316.948 -110.171
L271.163 -109.918
L234.535 -109.834
L202.486 -109.8
L177.305 -109.8
L156.702 -109.8
L140.677 -109.8
L126.942 -109.8
L115.495 -109.8
L104.049 -109.8
L97.1815 -109.8
L90.3138 -109.8
L85.7354 -109.8
L81.1569 -109.8
L76.5785 -109.8
L74.2892 -109.8
L72 -109.8
z
" id="C0_0_0092cdd46e"/>
    </defs>
    <g clip-path="url(#p332b41defa)">
     <use style="fill:#ff0000;opacity:0.3;stroke:#ff0000;stroke-linecap:butt;" x="0" xlink:href="#C0_0_0092cdd46e" y="432.0"/>
    </g>
   </g>
   <g id="PolyCollection_2">
    <defs>
     <path d="
M72 -109.8
L72 -109.8
L74.2892 -109.8
L76.5785 -109.8
L81.1569 -109.8
L85.7354 -109.8
L90.3138 -109.8
L97.1815 -109.8
L104.049 -109.8
L115.495 -109.906
L126.942 -110.106
L140.677 -110.788
L156.702 -111.397
L177.305 -113.569
L202.486 -115.8
L234.535 -118.776
L271.163 -121.684
L316.948 -125.372
L371.889 -128.83
L438.277 -131.12
L518.4 -133.043
L518.4 -133.555
L518.4 -133.555
L438.277 -131.9
L371.889 -129.479
L316.948 -126.106
L271.163 -122.338
L234.535 -119.363
L202.486 -116.288
L177.305 -114.083
L156.702 -111.835
L140.677 -111.054
L126.942 -110.366
L115.495 -110.021
L104.049 -109.846
L97.1815 -109.8
L90.3138 -109.8
L85.7354 -109.8
L81.1569 -109.8
L76.5785 -109.8
L74.2892 -109.8
L72 -109.8
z
" id="C1_0_bd2e48f911"/>
    </defs>
    <g clip-path="url(#p332b41defa)">
     <use style="fill:#ff0000;opacity:0.3;stroke:#ff0000;stroke-linecap:butt;" x="0" xlink:href="#C1_0_bd2e48f911" y="432.0"/>
    </g>
   </g>
   <g id="PolyCollection_3">
    <defs>
     <path d="
M72 -109.8
L72 -109.8
L74.2892 -109.8
L76.5785 -109.8
L81.1569 -109.8
L85.7354 -109.8
L90.3138 -109.8
L97.1815 -109.8
L104.049 -109.8
L115.495 -109.8
L126.942 -109.8
L140.677 -109.8
L156.702 -109.832
L177.305 -109.891
L202.486 -110.085
L234.535 -111.157
L271.163 -112.854
L316.948 -115.448
L371.889 -120.888
L438.277 -127.073
L518.4 -134.558
L518.4 -137.207
L518.4 -137.207
L438.277 -129.051
L371.889 -123.067
L316.948 -116.467
L271.163 -113.418
L234.535 -111.643
L202.486 -110.246
L177.305 -110.034
L156.702 -109.914
L140.677 -109.8
L126.942 -109.8
L115.495 -109.8
L104.049 -109.8
L97.1815 -109.8
L90.3138 -109.8
L85.7354 -109.8
L81.1569 -109.8
L76.5785 -109.8
L74.2892 -109.8
L72 -109.8
z
" id="C2_0_14419e349e"/>
    </defs>
    <g clip-path="url(#p332b41defa)">
     <use style="fill:#ff9933;opacity:0.3;stroke:#ff9933;stroke-linecap:butt;" x="0" xlink:href="#C2_0_14419e349e" y="432.0"/>
    </g>
   </g>
   <g id="PolyCollection_4">
    <defs>
     <path d="
M72 -110.381
L72 -110.091
L74.2892 -110.075
L76.5785 -110.215
L81.1569 -110.225
L85.7354 -110.064
L90.3138 -110.065
L97.1815 -110.169
L104.049 -110.097
L115.495 -110.472
L126.942 -111.22
L140.677 -112
L156.702 -113.964
L177.305 -115.747
L202.486 -119.613
L234.535 -123.969
L271.163 -129.215
L316.948 -133.902
L371.889 -139.148
L438.277 -143.301
L518.4 -147.379
L518.4 -147.873
L518.4 -147.873
L438.277 -144.2
L371.889 -140.098
L316.948 -134.647
L271.163 -129.951
L234.535 -124.793
L202.486 -120.293
L177.305 -116.521
L156.702 -114.77
L140.677 -112.507
L126.942 -111.507
L115.495 -110.727
L104.049 -110.237
L97.1815 -110.467
L90.3138 -110.206
L85.7354 -110.249
L81.1569 -110.635
L76.5785 -110.63
L74.2892 -110.397
L72 -110.381
z
" id="C3_0_6cd63ebf64"/>
    </defs>
    <g clip-path="url(#p332b41defa)">
     <use style="fill:#ff9933;opacity:0.3;stroke:#ff9933;stroke-linecap:butt;" x="0" xlink:href="#C3_0_6cd63ebf64" y="432.0"/>
    </g>
   </g>
   <g id="PolyCollection_5">
    <defs>
     <path d="
M72 -109.8
L72 -109.8
L74.2892 -109.8
L76.5785 -109.8
L81.1569 -109.8
L85.7354 -109.8
L90.3138 -109.8
L97.1815 -109.8
L104.049 -109.8
L115.495 -109.8
L126.942 -109.8
L140.677 -109.822
L156.702 -110.124
L177.305 -110.838
L202.486 -112.156
L234.535 -115.941
L271.163 -119.898
L316.948 -128.583
L371.889 -134.008
L438.277 -146.789
L518.4 -159.668
L518.4 -163.201
L518.4 -163.201
L438.277 -149.938
L371.889 -136.45
L316.948 -130.695
L271.163 -121.309
L234.535 -117.861
L202.486 -113.126
L177.305 -111.241
L156.702 -110.328
L140.677 -109.877
L126.942 -109.83
L115.495 -109.836
L104.049 -109.8
L97.1815 -109.8
L90.3138 -109.8
L85.7354 -109.8
L81.1569 -109.8
L76.5785 -109.8
L74.2892 -109.8
L72 -109.8
z
" id="C4_0_93a77c0440"/>
    </defs>
    <g clip-path="url(#p332b41defa)">
     <use style="fill:#ffff00;opacity:0.3;stroke:#ffff00;stroke-linecap:butt;" x="0" xlink:href="#C4_0_93a77c0440" y="432.0"/>
    </g>
   </g>
   <g id="PolyCollection_6">
    <defs>
     <path d="
M72 -110.556
L72 -110.091
L74.2892 -110.467
L76.5785 -110.73
L81.1569 -110.284
L85.7354 -110.432
L90.3138 -110.946
L97.1815 -110.743
L104.049 -110.975
L115.495 -111.574
L126.942 -112.118
L140.677 -113.221
L156.702 -115.817
L177.305 -120.134
L202.486 -123.953
L234.535 -130.836
L271.163 -137.376
L316.948 -144.035
L371.889 -151.415
L438.277 -157.059
L518.4 -162.361
L518.4 -162.98
L518.4 -162.98
L438.277 -158.019
L371.889 -152.302
L316.948 -145.284
L271.163 -138.034
L234.535 -131.635
L202.486 -124.602
L177.305 -120.545
L156.702 -116.592
L140.677 -113.703
L126.942 -112.563
L115.495 -111.913
L104.049 -111.287
L97.1815 -111.092
L90.3138 -111.269
L85.7354 -111.07
L81.1569 -110.575
L76.5785 -111.237
L74.2892 -111.313
L72 -110.556
z
" id="C5_0_56c323f982"/>
    </defs>
    <g clip-path="url(#p332b41defa)">
     <use style="fill:#ffff00;opacity:0.3;stroke:#ffff00;stroke-linecap:butt;" x="0" xlink:href="#C5_0_56c323f982" y="432.0"/>
    </g>
   </g>
   <g id="PolyCollection_7">
    <defs>
     <path d="
M72 -109.8
L72 -109.8
L74.2892 -109.8
L76.5785 -109.8
L81.1569 -109.8
L85.7354 -109.8
L90.3138 -109.8
L97.1815 -109.8
L104.049 -109.854
L115.495 -110.859
L126.942 -112.351
L140.677 -114.047
L156.702 -119.268
L177.305 -127.52
L202.486 -132.502
L234.535 -143.27
L271.163 -157.371
L316.948 -171.396
L371.889 -194.658
L438.277 -209.877
L518.4 -222.163
L518.4 -227.93
L518.4 -227.93
L438.277 -214.566
L371.889 -199.772
L316.948 -175.357
L271.163 -161.831
L234.535 -145.312
L202.486 -136.176
L177.305 -128.682
L156.702 -121.236
L140.677 -115.392
L126.942 -113.322
L115.495 -111.175
L104.049 -109.929
L97.1815 -109.8
L90.3138 -109.8
L85.7354 -109.8
L81.1569 -109.8
L76.5785 -109.8
L74.2892 -109.8
L72 -109.8
z
" id="C6_0_918bf6fe34"/>
    </defs>
    <g clip-path="url(#p332b41defa)">
     <use style="fill:#00ff00;opacity:0.3;stroke:#00ff00;stroke-linecap:butt;" x="0" xlink:href="#C6_0_918bf6fe34" y="432.0"/>
    </g>
   </g>
   <g id="PolyCollection_8">
    <defs>
     <path d="
M72 -112.346
L72 -111.439
L74.2892 -111.834
L76.5785 -112.012
L81.1569 -111.938
L85.7354 -111.566
L90.3138 -111.669
L97.1815 -111.574
L104.049 -112.582
L115.495 -113.613
L126.942 -116.254
L140.677 -119.921
L156.702 -124.658
L177.305 -131.425
L202.486 -139.844
L234.535 -150.318
L271.163 -161.113
L316.948 -172.089
L371.889 -182.102
L438.277 -191.861
L518.4 -198.821
L518.4 -199.509
L518.4 -199.509
L438.277 -192.365
L371.889 -182.877
L316.948 -172.991
L271.163 -162.288
L234.535 -151.846
L202.486 -140.76
L177.305 -132.367
L156.702 -125.541
L140.677 -121.226
L126.942 -117.236
L115.495 -114.161
L104.049 -113.121
L97.1815 -112.167
L90.3138 -112.022
L85.7354 -112.235
L81.1569 -112.699
L76.5785 -112.446
L74.2892 -112.706
L72 -112.346
z
" id="C7_0_8904c79c25"/>
    </defs>
    <g clip-path="url(#p332b41defa)">
     <use style="fill:#00ff00;opacity:0.3;stroke:#00ff00;stroke-linecap:butt;" x="0" xlink:href="#C7_0_8904c79c25" y="432.0"/>
    </g>
   </g>
   <g id="PolyCollection_9">
    <defs>
     <path d="
M72 -109.8
L72 -109.8
L74.2892 -109.8
L76.5785 -109.8
L81.1569 -109.8
L85.7354 -109.876
L90.3138 -109.871
L97.1815 -110.944
L104.049 -112.723
L115.495 -117.766
L126.942 -125.903
L140.677 -132.632
L156.702 -140.019
L177.305 -157.063
L202.486 -176.395
L234.535 -189.499
L271.163 -213.057
L316.948 -227.031
L371.889 -252.427
L438.277 -267.004
L518.4 -288.208
L518.4 -295.408
L518.4 -295.408
L438.277 -272.907
L371.889 -260.027
L316.948 -231.478
L271.163 -218.248
L234.535 -195.517
L202.486 -183.38
L177.305 -160.82
L156.702 -144.494
L140.677 -135.27
L126.942 -128.783
L115.495 -119.126
L104.049 -113.668
L97.1815 -111.871
L90.3138 -110.4
L85.7354 -110.12
L81.1569 -109.8
L76.5785 -109.8
L74.2892 -109.8
L72 -109.8
z
" id="C8_0_d4830dafd8"/>
    </defs>
    <g clip-path="url(#p332b41defa)">
     <use style="fill:#00ffff;opacity:0.3;stroke:#00ffff;stroke-linecap:butt;" x="0" xlink:href="#C8_0_d4830dafd8" y="432.0"/>
    </g>
   </g>
   <g id="PolyCollection_10">
    <defs>
     <path d="
M72 -114.805
L72 -113.165
L74.2892 -112.427
L76.5785 -112.122
L81.1569 -112.943
L85.7354 -112.403
L90.3138 -113.106
L97.1815 -113.971
L104.049 -115.678
L115.495 -119.423
L126.942 -125.73
L140.677 -132.953
L156.702 -141.854
L177.305 -151.351
L202.486 -165.652
L234.535 -179.96
L271.163 -193.014
L316.948 -206.062
L371.889 -219.963
L438.277 -232.125
L518.4 -242.532
L518.4 -243.068
L518.4 -243.068
L438.277 -233.169
L371.889 -221.106
L316.948 -207.678
L271.163 -194.137
L234.535 -180.987
L202.486 -167.756
L177.305 -153.214
L156.702 -143.282
L140.677 -134.974
L126.942 -127.693
L115.495 -121.356
L104.049 -116.128
L97.1815 -114.893
L90.3138 -114.005
L85.7354 -112.983
L81.1569 -113.632
L76.5785 -113.208
L74.2892 -113.421
L72 -114.805
z
" id="C9_0_392a3eae24"/>
    </defs>
    <g clip-path="url(#p332b41defa)">
     <use style="fill:#00ffff;opacity:0.3;stroke:#00ffff;stroke-linecap:butt;" x="0" xlink:href="#C9_0_392a3eae24" y="432.0"/>
    </g>
   </g>
   <g id="PolyCollection_11">
    <defs>
     <path d="
M72 -109.8
L72 -109.8
L74.2892 -109.8
L76.5785 -109.8
L81.1569 -112.355
L85.7354 -113.168
L90.3138 -117.675
L97.1815 -124.885
L104.049 -135.022
L115.495 -150.882
L126.942 -164.069
L140.677 -180.452
L156.702 -198.496
L177.305 -220.247
L202.486 -245.903
L234.535 -266.274
L271.163 -291.1
L316.948 -310.033
L371.889 -328.235
L438.277 -351.927
L518.4 -363.864
L518.4 -368.717
L518.4 -368.717
L438.277 -358.184
L371.889 -333.335
L316.948 -314.467
L271.163 -298.762
L234.535 -271.09
L202.486 -250.405
L177.305 -227.784
L156.702 -204.842
L140.677 -185.922
L126.942 -171.07
L115.495 -153.072
L104.049 -140.378
L97.1815 -129.154
L90.3138 -118.96
L85.7354 -118.48
L81.1569 -114.026
L76.5785 -110.049
L74.2892 -109.8
L72 -109.8
z
" id="Ca_0_fe496f0d0a"/>
    </defs>
    <g clip-path="url(#p332b41defa)">
     <use style="fill:#0000ff;opacity:0.3;stroke:#0000ff;stroke-linecap:butt;" x="0" xlink:href="#Ca_0_fe496f0d0a" y="432.0"/>
    </g>
   </g>
   <g id="PolyCollection_12">
    <defs>
     <path d="
M72 -115.097
L72 -113.745
L74.2892 -112.824
L76.5785 -113.371
L81.1569 -113.764
L85.7354 -114.263
L90.3138 -116.062
L97.1815 -118.09
L104.049 -122.658
L115.495 -131.487
L126.942 -140.876
L140.677 -153.546
L156.702 -165.281
L177.305 -182.252
L202.486 -201.464
L234.535 -217.387
L271.163 -235.526
L316.948 -250.91
L371.889 -265.024
L438.277 -278.816
L518.4 -291.004
L518.4 -291.872
L518.4 -291.872
L438.277 -279.563
L371.889 -266.316
L316.948 -252.679
L271.163 -237.278
L234.535 -219.183
L202.486 -203.367
L177.305 -184.593
L156.702 -167.85
L140.677 -155.209
L126.942 -143.092
L115.495 -133.741
L104.049 -124.658
L97.1815 -119.928
L90.3138 -117.086
L85.7354 -115.403
L81.1569 -115.426
L76.5785 -114.575
L74.2892 -113.606
L72 -115.097
z
" id="Cb_0_d11f49ecab"/>
    </defs>
    <g clip-path="url(#p332b41defa)">
     <use style="fill:#0000ff;opacity:0.3;stroke:#0000ff;stroke-linecap:butt;" x="0" xlink:href="#Cb_0_d11f49ecab" y="432.0"/>
    </g>
   </g>
   <g id="line2d_1">
    <path clip-path="url(#p332b41defa)" d="
M72 322.2
L74.2892 322.2
L76.5785 322.2
L81.1569 322.2
L85.7354 322.2
L90.3138 322.2
L97.1815 322.2
L104.049 322.2
L115.495 322.2
L126.942 322.2
L140.677 322.2
L156.702 322.2
L177.305 322.2
L202.486 322.2
L234.535 322.183
L271.163 322.124
L316.948 321.912
L371.889 321.2
L438.277 320.102
L518.4 316.821" style="fill:none;stroke:#ff0000;"/>
   </g>
   <g id="line2d_2">
    <path clip-path="url(#p332b41defa)" d="
M72 322.2
L74.2892 322.2
L76.5785 322.2
L81.1569 322.2
L85.7354 322.2
L90.3138 322.2
L97.1815 322.2
L104.049 322.177
L115.495 322.037
L126.942 321.764
L140.677 321.079
L156.702 320.384
L177.305 318.174
L202.486 315.956
L234.535 312.931
L271.163 309.989
L316.948 306.261
L371.889 302.846
L438.277 300.49
L518.4 298.701" style="fill:none;stroke:#ff0000;stroke-dasharray:6.000000,6.000000;stroke-dashoffset:0.0;stroke-linecap:butt;"/>
   </g>
   <g id="line2d_3">
    <path clip-path="url(#p332b41defa)" d="
M72 322.2
L74.2892 322.2
L76.5785 322.2
L81.1569 322.2
L85.7354 322.2
L90.3138 322.2
L97.1815 322.2
L104.049 322.2
L115.495 322.2
L126.942 322.2
L140.677 322.2
L156.702 322.127
L177.305 322.038
L202.486 321.834
L234.535 320.6
L271.163 318.864
L316.948 316.042
L371.889 310.023
L438.277 303.938
L518.4 296.118" style="fill:none;stroke:#ff9933;"/>
   </g>
   <g id="line2d_4">
    <path clip-path="url(#p332b41defa)" d="
M72 321.764
L74.2892 321.764
L76.5785 321.577
L81.1569 321.57
L85.7354 321.843
L90.3138 321.865
L97.1815 321.682
L104.049 321.833
L115.495 321.401
L126.942 320.637
L140.677 319.746
L156.702 317.633
L177.305 315.866
L202.486 312.047
L234.535 307.619
L271.163 302.417
L316.948 297.725
L371.889 292.377
L438.277 288.25
L518.4 284.374" style="fill:none;stroke:#ff9933;stroke-dasharray:6.000000,6.000000;stroke-dashoffset:0.0;stroke-linecap:butt;"/>
   </g>
   <g id="line2d_5">
    <path clip-path="url(#p332b41defa)" d="
M72 322.2
L74.2892 322.2
L76.5785 322.2
L81.1569 322.2
L85.7354 322.2
L90.3138 322.2
L97.1815 322.2
L104.049 322.2
L115.495 322.182
L126.942 322.185
L140.677 322.15
L156.702 321.774
L177.305 320.961
L202.486 319.359
L234.535 315.099
L271.163 311.396
L316.948 302.361
L371.889 296.771
L438.277 283.637
L518.4 270.565" style="fill:none;stroke:#ffff00;"/>
   </g>
   <g id="line2d_6">
    <path clip-path="url(#p332b41defa)" d="
M72 321.677
L74.2892 321.11
L76.5785 321.017
L81.1569 321.57
L85.7354 321.249
L90.3138 320.892
L97.1815 321.083
L104.049 320.869
L115.495 320.256
L126.942 319.66
L140.677 318.538
L156.702 315.796
L177.305 311.661
L202.486 307.723
L234.535 300.764
L271.163 294.295
L316.948 287.341
L371.889 280.142
L438.277 274.461
L518.4 269.329" style="fill:none;stroke:#ffff00;stroke-dasharray:6.000000,6.000000;stroke-dashoffset:0.0;stroke-linecap:butt;"/>
   </g>
   <g id="line2d_7">
    <path clip-path="url(#p332b41defa)" d="
M72 322.2
L74.2892 322.2
L76.5785 322.2
L81.1569 322.2
L85.7354 322.2
L90.3138 322.2
L97.1815 322.2
L104.049 322.108
L115.495 320.983
L126.942 319.163
L140.677 317.28
L156.702 311.748
L177.305 303.899
L202.486 297.661
L234.535 287.709
L271.163 272.399
L316.948 258.623
L371.889 234.785
L438.277 219.778
L518.4 206.953" style="fill:none;stroke:#00ff00;"/>
   </g>
   <g id="line2d_8">
    <path clip-path="url(#p332b41defa)" d="
M72 320.108
L74.2892 319.73
L76.5785 319.771
L81.1569 319.681
L85.7354 320.1
L90.3138 320.154
L97.1815 320.129
L104.049 319.148
L115.495 318.113
L126.942 315.255
L140.677 311.426
L156.702 306.901
L177.305 300.104
L202.486 291.698
L234.535 280.918
L271.163 270.3
L316.948 259.46
L371.889 249.511
L438.277 239.887
L518.4 232.835" style="fill:none;stroke:#00ff00;stroke-dasharray:6.000000,6.000000;stroke-dashoffset:0.0;stroke-linecap:butt;"/>
   </g>
   <g id="line2d_9">
    <path clip-path="url(#p332b41defa)" d="
M72 322.2
L74.2892 322.2
L76.5785 322.2
L81.1569 322.2
L85.7354 322.002
L90.3138 321.865
L97.1815 320.592
L104.049 318.804
L115.495 313.554
L126.942 304.657
L140.677 298.049
L156.702 289.743
L177.305 273.059
L202.486 252.112
L234.535 239.492
L271.163 216.348
L316.948 202.745
L371.889 175.773
L438.277 162.044
L518.4 140.192" style="fill:none;stroke:#00ffff;"/>
   </g>
   <g id="line2d_10">
    <path clip-path="url(#p332b41defa)" d="
M72 318.015
L74.2892 319.076
L76.5785 319.335
L81.1569 318.712
L85.7354 319.307
L90.3138 318.444
L97.1815 317.568
L104.049 316.097
L115.495 311.61
L126.942 305.289
L140.677 298.037
L156.702 289.432
L177.305 279.717
L202.486 265.296
L234.535 251.527
L271.163 238.424
L316.948 225.13
L371.889 211.465
L438.277 199.353
L518.4 189.2" style="fill:none;stroke:#00ffff;stroke-dasharray:6.000000,6.000000;stroke-dashoffset:0.0;stroke-linecap:butt;"/>
   </g>
   <g id="line2d_11">
    <path clip-path="url(#p332b41defa)" d="
M72 322.2
L74.2892 322.2
L76.5785 322.075
L81.1569 318.809
L85.7354 316.176
L90.3138 313.682
L97.1815 304.98
L104.049 294.3
L115.495 280.023
L126.942 264.431
L140.677 248.813
L156.702 230.331
L177.305 207.984
L202.486 183.846
L234.535 163.318
L271.163 137.069
L316.948 119.75
L371.889 101.215
L438.277 76.9442
L518.4 65.7096" style="fill:none;stroke:#0000ff;"/>
   </g>
   <g id="line2d_12">
    <path clip-path="url(#p332b41defa)" d="
M72 317.579
L74.2892 318.785
L76.5785 318.027
L81.1569 317.405
L85.7354 317.167
L90.3138 315.426
L97.1815 312.991
L104.049 308.342
L115.495 299.386
L126.942 290.016
L140.677 277.622
L156.702 265.435
L177.305 248.578
L202.486 229.584
L234.535 213.715
L271.163 195.598
L316.948 180.205
L371.889 166.33
L438.277 152.811
L518.4 140.562" style="fill:none;stroke:#0000ff;stroke-dasharray:6.000000,6.000000;stroke-dashoffset:0.0;stroke-linecap:butt;"/>
   </g>
   <g id="matplotlib.axis_1">
    <g id="xtick_1">
     <g id="line2d_13">
      <defs>
       <path d="
M0 0
L0 -4" id="mcb557df647" style="stroke:#000000;stroke-linecap:butt;stroke-width:0.5;"/>
      </defs>
      <g>
       <use style="stroke:#000000;stroke-linecap:butt;stroke-width:0.5;" x="175.015384615" xlink:href="#mcb557df647" y="378.0"/>
      </g>
     </g>
     <g id="line2d_14">
      <defs>
       <path d="
M0 0
L0 4" id="mdad270ee8e" style="stroke:#000000;stroke-linecap:butt;stroke-width:0.5;"/>
      </defs>
      <g>
       <use style="stroke:#000000;stroke-linecap:butt;stroke-width:0.5;" x="175.015384615" xlink:href="#mdad270ee8e" y="43.2"/>
      </g>
     </g>
     <g id="text_1">
      <!-- 50 -->
      <defs>
       <path d="
M31.7812 66.4062
Q24.1719 66.4062 20.3281 58.9062
Q16.5 51.4219 16.5 36.375
Q16.5 21.3906 20.3281 13.8906
Q24.1719 6.39062 31.7812 6.39062
Q39.4531 6.39062 43.2812 13.8906
Q47.125 21.3906 47.125 36.375
Q47.125 51.4219 43.2812 58.9062
Q39.4531 66.4062 31.7812 66.4062
M31.7812 74.2188
Q44.0469 74.2188 50.5156 64.5156
Q56.9844 54.8281 56.9844 36.375
Q56.9844 17.9688 50.5156 8.26562
Q44.0469 -1.42188 31.7812 -1.42188
Q19.5312 -1.42188 13.0625 8.26562
Q6.59375 17.9688 6.59375 36.375
Q6.59375 54.8281 13.0625 64.5156
Q19.5312 74.2188 31.7812 74.2188" id="BitstreamVeraSans-Roman-30"/>
       <path d="
M10.7969 72.9062
L49.5156 72.9062
L49.5156 64.5938
L19.8281 64.5938
L19.8281 46.7344
Q21.9688 47.4688 24.1094 47.8281
Q26.2656 48.1875 28.4219 48.1875
Q40.625 48.1875 47.75 41.5
Q54.8906 34.8125 54.8906 23.3906
Q54.8906 11.625 47.5625 5.09375
Q40.2344 -1.42188 26.9062 -1.42188
Q22.3125 -1.42188 17.5469 -0.640625
Q12.7969 0.140625 7.71875 1.70312
L7.71875 11.625
Q12.1094 9.23438 16.7969 8.0625
Q21.4844 6.89062 26.7031 6.89062
Q35.1562 6.89062 40.0781 11.3281
Q45.0156 15.7656 45.0156 23.3906
Q45.0156 31 40.0781 35.4375
Q35.1562 39.8906 26.7031 39.8906
Q22.75 39.8906 18.8125 39.0156
Q14.8906 38.1406 10.7969 36.2812
z
" id="BitstreamVeraSans-Roman-35"/>
      </defs>
      <g transform="translate(169.370853365 389.421875)scale(0.1 -0.1)">
       <use xlink:href="#BitstreamVeraSans-Roman-35"/>
       <use x="63.623046875" xlink:href="#BitstreamVeraSans-Roman-30"/>
      </g>
     </g>
    </g>
    <g id="xtick_2">
     <g id="line2d_15">
      <g>
       <use style="stroke:#000000;stroke-linecap:butt;stroke-width:0.5;" x="289.476923077" xlink:href="#mcb557df647" y="378.0"/>
      </g>
     </g>
     <g id="line2d_16">
      <g>
       <use style="stroke:#000000;stroke-linecap:butt;stroke-width:0.5;" x="289.476923077" xlink:href="#mdad270ee8e" y="43.2"/>
      </g>
     </g>
     <g id="text_2">
      <!-- 100 -->
      <defs>
       <path d="
M12.4062 8.29688
L28.5156 8.29688
L28.5156 63.9219
L10.9844 60.4062
L10.9844 69.3906
L28.4219 72.9062
L38.2812 72.9062
L38.2812 8.29688
L54.3906 8.29688
L54.3906 0
L12.4062 0
z
" id="BitstreamVeraSans-Roman-31"/>
      </defs>
      <g transform="translate(280.814423077 389.421875)scale(0.1 -0.1)">
       <use xlink:href="#BitstreamVeraSans-Roman-31"/>
       <use x="63.623046875" xlink:href="#BitstreamVeraSans-Roman-30"/>
       <use x="127.24609375" xlink:href="#BitstreamVeraSans-Roman-30"/>
      </g>
     </g>
    </g>
    <g id="xtick_3">
     <g id="line2d_17">
      <g>
       <use style="stroke:#000000;stroke-linecap:butt;stroke-width:0.5;" x="403.938461538" xlink:href="#mcb557df647" y="378.0"/>
      </g>
     </g>
     <g id="line2d_18">
      <g>
       <use style="stroke:#000000;stroke-linecap:butt;stroke-width:0.5;" x="403.938461538" xlink:href="#mdad270ee8e" y="43.2"/>
      </g>
     </g>
     <g id="text_3">
      <!-- 150 -->
      <g transform="translate(395.275961538 389.421875)scale(0.1 -0.1)">
       <use xlink:href="#BitstreamVeraSans-Roman-31"/>
       <use x="63.623046875" xlink:href="#BitstreamVeraSans-Roman-35"/>
       <use x="127.24609375" xlink:href="#BitstreamVeraSans-Roman-30"/>
      </g>
     </g>
    </g>
    <g id="xtick_4">
     <g id="line2d_19">
      <g>
       <use style="stroke:#000000;stroke-linecap:butt;stroke-width:0.5;" x="518.4" xlink:href="#mcb557df647" y="378.0"/>
      </g>
     </g>
     <g id="line2d_20">
      <g>
       <use style="stroke:#000000;stroke-linecap:butt;stroke-width:0.5;" x="518.4" xlink:href="#mdad270ee8e" y="43.2"/>
      </g>
     </g>
     <g id="text_4">
      <!-- 200 -->
      <defs>
       <path d="
M19.1875 8.29688
L53.6094 8.29688
L53.6094 0
L7.32812 0
L7.32812 8.29688
Q12.9375 14.1094 22.625 23.8906
Q32.3281 33.6875 34.8125 36.5312
Q39.5469 41.8438 41.4219 45.5312
Q43.3125 49.2188 43.3125 52.7812
Q43.3125 58.5938 39.2344 62.25
Q35.1562 65.9219 28.6094 65.9219
Q23.9688 65.9219 18.8125 64.3125
Q13.6719 62.7031 7.8125 59.4219
L7.8125 69.3906
Q13.7656 71.7812 18.9375 73
Q24.125 74.2188 28.4219 74.2188
Q39.75 74.2188 46.4844 68.5469
Q53.2188 62.8906 53.2188 53.4219
Q53.2188 48.9219 51.5312 44.8906
Q49.8594 40.875 45.4062 35.4062
Q44.1875 33.9844 37.6406 27.2188
Q31.1094 20.4531 19.1875 8.29688" id="BitstreamVeraSans-Roman-32"/>
      </defs>
      <g transform="translate(509.5546875 389.421875)scale(0.1 -0.1)">
       <use xlink:href="#BitstreamVeraSans-Roman-32"/>
       <use x="63.623046875" xlink:href="#BitstreamVeraSans-Roman-30"/>
       <use x="127.24609375" xlink:href="#BitstreamVeraSans-Roman-30"/>
      </g>
     </g>
    </g>
    <g id="text_5">
     <!-- Number of stored items -->
     <defs>
      <path id="BitstreamVeraSans-Roman-20"/>
      <path d="
M9.8125 72.9062
L23.0938 72.9062
L55.4219 11.9219
L55.4219 72.9062
L64.9844 72.9062
L64.9844 0
L51.7031 0
L19.3906 60.9844
L19.3906 0
L9.8125 0
z
" id="BitstreamVeraSans-Roman-4e"/>
      <path d="
M37.1094 75.9844
L37.1094 68.5
L28.5156 68.5
Q23.6875 68.5 21.7969 66.5469
Q19.9219 64.5938 19.9219 59.5156
L19.9219 54.6875
L34.7188 54.6875
L34.7188 47.7031
L19.9219 47.7031
L19.9219 0
L10.8906 0
L10.8906 47.7031
L2.29688 47.7031
L2.29688 54.6875
L10.8906 54.6875
L10.8906 58.5
Q10.8906 67.625 15.1406 71.7969
Q19.3906 75.9844 28.6094 75.9844
z
" id="BitstreamVeraSans-Roman-66"/>
      <path d="
M52 44.1875
Q55.375 50.25 60.0625 53.125
Q64.75 56 71.0938 56
Q79.6406 56 84.2812 50.0156
Q88.9219 44.0469 88.9219 33.0156
L88.9219 0
L79.8906 0
L79.8906 32.7188
Q79.8906 40.5781 77.0938 44.375
Q74.3125 48.1875 68.6094 48.1875
Q61.625 48.1875 57.5625 43.5469
Q53.5156 38.9219 53.5156 30.9062
L53.5156 0
L44.4844 0
L44.4844 32.7188
Q44.4844 40.625 41.7031 44.4062
Q38.9219 48.1875 33.1094 48.1875
Q26.2188 48.1875 22.1562 43.5312
Q18.1094 38.875 18.1094 30.9062
L18.1094 0
L9.07812 0
L9.07812 54.6875
L18.1094 54.6875
L18.1094 46.1875
Q21.1875 51.2188 25.4844 53.6094
Q29.7812 56 35.6875 56
Q41.6562 56 45.8281 52.9688
Q50 49.9531 52 44.1875" id="BitstreamVeraSans-Roman-6d"/>
      <path d="
M30.6094 48.3906
Q23.3906 48.3906 19.1875 42.75
Q14.9844 37.1094 14.9844 27.2969
Q14.9844 17.4844 19.1562 11.8438
Q23.3438 6.20312 30.6094 6.20312
Q37.7969 6.20312 41.9844 11.8594
Q46.1875 17.5312 46.1875 27.2969
Q46.1875 37.0156 41.9844 42.7031
Q37.7969 48.3906 30.6094 48.3906
M30.6094 56
Q42.3281 56 49.0156 48.375
Q55.7188 40.7656 55.7188 27.2969
Q55.7188 13.875 49.0156 6.21875
Q42.3281 -1.42188 30.6094 -1.42188
Q18.8438 -1.42188 12.1719 6.21875
Q5.51562 13.875 5.51562 27.2969
Q5.51562 40.7656 12.1719 48.375
Q18.8438 56 30.6094 56" id="BitstreamVeraSans-Roman-6f"/>
      <path d="
M9.42188 54.6875
L18.4062 54.6875
L18.4062 0
L9.42188 0
z

M9.42188 75.9844
L18.4062 75.9844
L18.4062 64.5938
L9.42188 64.5938
z
" id="BitstreamVeraSans-Roman-69"/>
      <path d="
M56.2031 29.5938
L56.2031 25.2031
L14.8906 25.2031
Q15.4844 15.9219 20.4844 11.0625
Q25.4844 6.20312 34.4219 6.20312
Q39.5938 6.20312 44.4531 7.46875
Q49.3125 8.73438 54.1094 11.2812
L54.1094 2.78125
Q49.2656 0.734375 44.1875 -0.34375
Q39.1094 -1.42188 33.8906 -1.42188
Q20.7969 -1.42188 13.1562 6.1875
Q5.51562 13.8125 5.51562 26.8125
Q5.51562 40.2344 12.7656 48.1094
Q20.0156 56 32.3281 56
Q43.3594 56 49.7812 48.8906
Q56.2031 41.7969 56.2031 29.5938
M47.2188 32.2344
Q47.125 39.5938 43.0938 43.9844
Q39.0625 48.3906 32.4219 48.3906
Q24.9062 48.3906 20.3906 44.1406
Q15.875 39.8906 15.1875 32.1719
z
" id="BitstreamVeraSans-Roman-65"/>
      <path d="
M45.4062 46.3906
L45.4062 75.9844
L54.3906 75.9844
L54.3906 0
L45.4062 0
L45.4062 8.20312
Q42.5781 3.32812 38.25 0.953125
Q33.9375 -1.42188 27.875 -1.42188
Q17.9688 -1.42188 11.7344 6.48438
Q5.51562 14.4062 5.51562 27.2969
Q5.51562 40.1875 11.7344 48.0938
Q17.9688 56 27.875 56
Q33.9375 56 38.25 53.625
Q42.5781 51.2656 45.4062 46.3906
M14.7969 27.2969
Q14.7969 17.3906 18.875 11.75
Q22.9531 6.10938 30.0781 6.10938
Q37.2031 6.10938 41.2969 11.75
Q45.4062 17.3906 45.4062 27.2969
Q45.4062 37.2031 41.2969 42.8438
Q37.2031 48.4844 30.0781 48.4844
Q22.9531 48.4844 18.875 42.8438
Q14.7969 37.2031 14.7969 27.2969" id="BitstreamVeraSans-Roman-64"/>
      <path d="
M18.3125 70.2188
L18.3125 54.6875
L36.8125 54.6875
L36.8125 47.7031
L18.3125 47.7031
L18.3125 18.0156
Q18.3125 11.3281 20.1406 9.42188
Q21.9688 7.51562 27.5938 7.51562
L36.8125 7.51562
L36.8125 0
L27.5938 0
Q17.1875 0 13.2344 3.875
Q9.28125 7.76562 9.28125 18.0156
L9.28125 47.7031
L2.6875 47.7031
L2.6875 54.6875
L9.28125 54.6875
L9.28125 70.2188
z
" id="BitstreamVeraSans-Roman-74"/>
      <path d="
M8.5 21.5781
L8.5 54.6875
L17.4844 54.6875
L17.4844 21.9219
Q17.4844 14.1562 20.5 10.2656
Q23.5312 6.39062 29.5938 6.39062
Q36.8594 6.39062 41.0781 11.0312
Q45.3125 15.6719 45.3125 23.6875
L45.3125 54.6875
L54.2969 54.6875
L54.2969 0
L45.3125 0
L45.3125 8.40625
Q42.0469 3.42188 37.7188 1
Q33.4062 -1.42188 27.6875 -1.42188
Q18.2656 -1.42188 13.375 4.4375
Q8.5 10.2969 8.5 21.5781" id="BitstreamVeraSans-Roman-75"/>
      <path d="
M41.1094 46.2969
Q39.5938 47.1719 37.8125 47.5781
Q36.0312 48 33.8906 48
Q26.2656 48 22.1875 43.0469
Q18.1094 38.0938 18.1094 28.8125
L18.1094 0
L9.07812 0
L9.07812 54.6875
L18.1094 54.6875
L18.1094 46.1875
Q20.9531 51.1719 25.4844 53.5781
Q30.0312 56 36.5312 56
Q37.4531 56 38.5781 55.875
Q39.7031 55.7656 41.0625 55.5156
z
" id="BitstreamVeraSans-Roman-72"/>
      <path d="
M44.2812 53.0781
L44.2812 44.5781
Q40.4844 46.5312 36.375 47.5
Q32.2812 48.4844 27.875 48.4844
Q21.1875 48.4844 17.8438 46.4375
Q14.5 44.3906 14.5 40.2812
Q14.5 37.1562 16.8906 35.375
Q19.2812 33.5938 26.5156 31.9844
L29.5938 31.2969
Q39.1562 29.25 43.1875 25.5156
Q47.2188 21.7812 47.2188 15.0938
Q47.2188 7.46875 41.1875 3.01562
Q35.1562 -1.42188 24.6094 -1.42188
Q20.2188 -1.42188 15.4531 -0.5625
Q10.6875 0.296875 5.42188 2
L5.42188 11.2812
Q10.4062 8.6875 15.2344 7.39062
Q20.0625 6.10938 24.8125 6.10938
Q31.1562 6.10938 34.5625 8.28125
Q37.9844 10.4531 37.9844 14.4062
Q37.9844 18.0625 35.5156 20.0156
Q33.0625 21.9688 24.7031 23.7812
L21.5781 24.5156
Q13.2344 26.2656 9.51562 29.9062
Q5.8125 33.5469 5.8125 39.8906
Q5.8125 47.6094 11.2812 51.7969
Q16.75 56 26.8125 56
Q31.7812 56 36.1719 55.2656
Q40.5781 54.5469 44.2812 53.0781" id="BitstreamVeraSans-Roman-73"/>
      <path d="
M48.6875 27.2969
Q48.6875 37.2031 44.6094 42.8438
Q40.5312 48.4844 33.4062 48.4844
Q26.2656 48.4844 22.1875 42.8438
Q18.1094 37.2031 18.1094 27.2969
Q18.1094 17.3906 22.1875 11.75
Q26.2656 6.10938 33.4062 6.10938
Q40.5312 6.10938 44.6094 11.75
Q48.6875 17.3906 48.6875 27.2969
M18.1094 46.3906
Q20.9531 51.2656 25.2656 53.625
Q29.5938 56 35.5938 56
Q45.5625 56 51.7812 48.0938
Q58.0156 40.1875 58.0156 27.2969
Q58.0156 14.4062 51.7812 6.48438
Q45.5625 -1.42188 35.5938 -1.42188
Q29.5938 -1.42188 25.2656 0.953125
Q20.9531 3.32812 18.1094 8.20312
L18.1094 0
L9.07812 0
L9.07812 75.9844
L18.1094 75.9844
z
" id="BitstreamVeraSans-Roman-62"/>
     </defs>
     <g transform="translate(236.05234375 402.1625)scale(0.1 -0.1)">
      <use xlink:href="#BitstreamVeraSans-Roman-4e"/>
      <use x="74.8046875" xlink:href="#BitstreamVeraSans-Roman-75"/>
      <use x="138.18359375" xlink:href="#BitstreamVeraSans-Roman-6d"/>
      <use x="235.595703125" xlink:href="#BitstreamVeraSans-Roman-62"/>
      <use x="299.072265625" xlink:href="#BitstreamVeraSans-Roman-65"/>
      <use x="360.595703125" xlink:href="#BitstreamVeraSans-Roman-72"/>
      <use x="401.708984375" xlink:href="#BitstreamVeraSans-Roman-20"/>
      <use x="433.49609375" xlink:href="#BitstreamVeraSans-Roman-6f"/>
      <use x="494.677734375" xlink:href="#BitstreamVeraSans-Roman-66"/>
      <use x="529.8828125" xlink:href="#BitstreamVeraSans-Roman-20"/>
      <use x="561.669921875" xlink:href="#BitstreamVeraSans-Roman-73"/>
      <use x="613.76953125" xlink:href="#BitstreamVeraSans-Roman-74"/>
      <use x="652.978515625" xlink:href="#BitstreamVeraSans-Roman-6f"/>
      <use x="714.16015625" xlink:href="#BitstreamVeraSans-Roman-72"/>
      <use x="753.0234375" xlink:href="#BitstreamVeraSans-Roman-65"/>
      <use x="814.546875" xlink:href="#BitstreamVeraSans-Roman-64"/>
      <use x="878.0234375" xlink:href="#BitstreamVeraSans-Roman-20"/>
      <use x="909.810546875" xlink:href="#BitstreamVeraSans-Roman-69"/>
      <use x="937.59375" xlink:href="#BitstreamVeraSans-Roman-74"/>
      <use x="976.802734375" xlink:href="#BitstreamVeraSans-Roman-65"/>
      <use x="1038.32617188" xlink:href="#BitstreamVeraSans-Roman-6d"/>
      <use x="1135.73828125" xlink:href="#BitstreamVeraSans-Roman-73"/>
     </g>
    </g>
   </g>
   <g id="matplotlib.axis_2">
    <g id="ytick_1">
     <g id="line2d_21">
      <defs>
       <path d="
M0 0
L4 0" id="mc8fcea1516" style="stroke:#000000;stroke-linecap:butt;stroke-width:0.5;"/>
      </defs>
      <g>
       <use style="stroke:#000000;stroke-linecap:butt;stroke-width:0.5;" x="72.0" xlink:href="#mc8fcea1516" y="378.0"/>
      </g>
     </g>
     <g id="line2d_22">
      <defs>
       <path d="
M0 0
L-4 0" id="m0d5b0a6425" style="stroke:#000000;stroke-linecap:butt;stroke-width:0.5;"/>
      </defs>
      <g>
       <use style="stroke:#000000;stroke-linecap:butt;stroke-width:0.5;" x="518.4" xlink:href="#m0d5b0a6425" y="378.0"/>
      </g>
     </g>
     <g id="text_6">
      <!-- −0.05 -->
      <defs>
       <path d="
M10.5938 35.5
L73.1875 35.5
L73.1875 27.2031
L10.5938 27.2031
z
" id="BitstreamVeraSans-Roman-2212"/>
       <path d="
M10.6875 12.4062
L21 12.4062
L21 0
L10.6875 0
z
" id="BitstreamVeraSans-Roman-2e"/>
      </defs>
      <g transform="translate(39.2875 381.63984375)scale(0.1 -0.1)">
       <use xlink:href="#BitstreamVeraSans-Roman-2212"/>
       <use x="83.7890625" xlink:href="#BitstreamVeraSans-Roman-30"/>
       <use x="147.412109375" xlink:href="#BitstreamVeraSans-Roman-2e"/>
       <use x="179.19921875" xlink:href="#BitstreamVeraSans-Roman-30"/>
       <use x="242.822265625" xlink:href="#BitstreamVeraSans-Roman-35"/>
      </g>
     </g>
    </g>
    <g id="ytick_2">
     <g id="line2d_23">
      <g>
       <use style="stroke:#000000;stroke-linecap:butt;stroke-width:0.5;" x="72.0" xlink:href="#mc8fcea1516" y="322.2"/>
      </g>
     </g>
     <g id="line2d_24">
      <g>
       <use style="stroke:#000000;stroke-linecap:butt;stroke-width:0.5;" x="518.4" xlink:href="#m0d5b0a6425" y="322.2"/>
      </g>
     </g>
     <g id="text_7">
      <!-- 0.00 -->
      <g transform="translate(47.0578125 325.83984375)scale(0.1 -0.1)">
       <use xlink:href="#BitstreamVeraSans-Roman-30"/>
       <use x="63.623046875" xlink:href="#BitstreamVeraSans-Roman-2e"/>
       <use x="95.41015625" xlink:href="#BitstreamVeraSans-Roman-30"/>
       <use x="159.033203125" xlink:href="#BitstreamVeraSans-Roman-30"/>
      </g>
     </g>
    </g>
    <g id="ytick_3">
     <g id="line2d_25">
      <g>
       <use style="stroke:#000000;stroke-linecap:butt;stroke-width:0.5;" x="72.0" xlink:href="#mc8fcea1516" y="266.4"/>
      </g>
     </g>
     <g id="line2d_26">
      <g>
       <use style="stroke:#000000;stroke-linecap:butt;stroke-width:0.5;" x="518.4" xlink:href="#m0d5b0a6425" y="266.4"/>
      </g>
     </g>
     <g id="text_8">
      <!-- 0.05 -->
      <g transform="translate(47.2671875 270.03984375)scale(0.1 -0.1)">
       <use xlink:href="#BitstreamVeraSans-Roman-30"/>
       <use x="63.623046875" xlink:href="#BitstreamVeraSans-Roman-2e"/>
       <use x="95.41015625" xlink:href="#BitstreamVeraSans-Roman-30"/>
       <use x="159.033203125" xlink:href="#BitstreamVeraSans-Roman-35"/>
      </g>
     </g>
    </g>
    <g id="ytick_4">
     <g id="line2d_27">
      <g>
       <use style="stroke:#000000;stroke-linecap:butt;stroke-width:0.5;" x="72.0" xlink:href="#mc8fcea1516" y="210.6"/>
      </g>
     </g>
     <g id="line2d_28">
      <g>
       <use style="stroke:#000000;stroke-linecap:butt;stroke-width:0.5;" x="518.4" xlink:href="#m0d5b0a6425" y="210.6"/>
      </g>
     </g>
     <g id="text_9">
      <!-- 0.10 -->
      <g transform="translate(47.0578125 214.23984375)scale(0.1 -0.1)">
       <use xlink:href="#BitstreamVeraSans-Roman-30"/>
       <use x="63.623046875" xlink:href="#BitstreamVeraSans-Roman-2e"/>
       <use x="95.41015625" xlink:href="#BitstreamVeraSans-Roman-31"/>
       <use x="159.033203125" xlink:href="#BitstreamVeraSans-Roman-30"/>
      </g>
     </g>
    </g>
    <g id="ytick_5">
     <g id="line2d_29">
      <g>
       <use style="stroke:#000000;stroke-linecap:butt;stroke-width:0.5;" x="72.0" xlink:href="#mc8fcea1516" y="154.8"/>
      </g>
     </g>
     <g id="line2d_30">
      <g>
       <use style="stroke:#000000;stroke-linecap:butt;stroke-width:0.5;" x="518.4" xlink:href="#m0d5b0a6425" y="154.8"/>
      </g>
     </g>
     <g id="text_10">
      <!-- 0.15 -->
      <g transform="translate(47.2671875 158.43984375)scale(0.1 -0.1)">
       <use xlink:href="#BitstreamVeraSans-Roman-30"/>
       <use x="63.623046875" xlink:href="#BitstreamVeraSans-Roman-2e"/>
       <use x="95.41015625" xlink:href="#BitstreamVeraSans-Roman-31"/>
       <use x="159.033203125" xlink:href="#BitstreamVeraSans-Roman-35"/>
      </g>
     </g>
    </g>
    <g id="ytick_6">
     <g id="line2d_31">
      <g>
       <use style="stroke:#000000;stroke-linecap:butt;stroke-width:0.5;" x="72.0" xlink:href="#mc8fcea1516" y="99.0"/>
      </g>
     </g>
     <g id="line2d_32">
      <g>
       <use style="stroke:#000000;stroke-linecap:butt;stroke-width:0.5;" x="518.4" xlink:href="#m0d5b0a6425" y="99.0"/>
      </g>
     </g>
     <g id="text_11">
      <!-- 0.20 -->
      <g transform="translate(47.0578125 102.63984375)scale(0.1 -0.1)">
       <use xlink:href="#BitstreamVeraSans-Roman-30"/>
       <use x="63.623046875" xlink:href="#BitstreamVeraSans-Roman-2e"/>
       <use x="95.41015625" xlink:href="#BitstreamVeraSans-Roman-32"/>
       <use x="159.033203125" xlink:href="#BitstreamVeraSans-Roman-30"/>
      </g>
     </g>
    </g>
    <g id="ytick_7">
     <g id="line2d_33">
      <g>
       <use style="stroke:#000000;stroke-linecap:butt;stroke-width:0.5;" x="72.0" xlink:href="#mc8fcea1516" y="43.2"/>
      </g>
     </g>
     <g id="line2d_34">
      <g>
       <use style="stroke:#000000;stroke-linecap:butt;stroke-width:0.5;" x="518.4" xlink:href="#m0d5b0a6425" y="43.2"/>
      </g>
     </g>
     <g id="text_12">
      <!-- 0.25 -->
      <g transform="translate(47.2671875 46.83984375)scale(0.1 -0.1)">
       <use xlink:href="#BitstreamVeraSans-Roman-30"/>
       <use x="63.623046875" xlink:href="#BitstreamVeraSans-Roman-2e"/>
       <use x="95.41015625" xlink:href="#BitstreamVeraSans-Roman-32"/>
       <use x="159.033203125" xlink:href="#BitstreamVeraSans-Roman-35"/>
      </g>
     </g>
    </g>
    <g id="text_13">
     <!-- Fraction of corrupted bits -->
     <defs>
      <path d="
M54.8906 33.0156
L54.8906 0
L45.9062 0
L45.9062 32.7188
Q45.9062 40.4844 42.875 44.3281
Q39.8438 48.1875 33.7969 48.1875
Q26.5156 48.1875 22.3125 43.5469
Q18.1094 38.9219 18.1094 30.9062
L18.1094 0
L9.07812 0
L9.07812 54.6875
L18.1094 54.6875
L18.1094 46.1875
Q21.3438 51.125 25.7031 53.5625
Q30.0781 56 35.7969 56
Q45.2188 56 50.0469 50.1719
Q54.8906 44.3438 54.8906 33.0156" id="BitstreamVeraSans-Roman-6e"/>
      <path d="
M9.8125 72.9062
L51.7031 72.9062
L51.7031 64.5938
L19.6719 64.5938
L19.6719 43.1094
L48.5781 43.1094
L48.5781 34.8125
L19.6719 34.8125
L19.6719 0
L9.8125 0
z
" id="BitstreamVeraSans-Roman-46"/>
      <path d="
M34.2812 27.4844
Q23.3906 27.4844 19.1875 25
Q14.9844 22.5156 14.9844 16.5
Q14.9844 11.7188 18.1406 8.90625
Q21.2969 6.10938 26.7031 6.10938
Q34.1875 6.10938 38.7031 11.4062
Q43.2188 16.7031 43.2188 25.4844
L43.2188 27.4844
z

M52.2031 31.2031
L52.2031 0
L43.2188 0
L43.2188 8.29688
Q40.1406 3.32812 35.5469 0.953125
Q30.9531 -1.42188 24.3125 -1.42188
Q15.9219 -1.42188 10.9531 3.29688
Q6 8.01562 6 15.9219
Q6 25.1406 12.1719 29.8281
Q18.3594 34.5156 30.6094 34.5156
L43.2188 34.5156
L43.2188 35.4062
Q43.2188 41.6094 39.1406 45
Q35.0625 48.3906 27.6875 48.3906
Q23 48.3906 18.5469 47.2656
Q14.1094 46.1406 10.0156 43.8906
L10.0156 52.2031
Q14.9375 54.1094 19.5781 55.0469
Q24.2188 56 28.6094 56
Q40.4844 56 46.3438 49.8438
Q52.2031 43.7031 52.2031 31.2031" id="BitstreamVeraSans-Roman-61"/>
      <path d="
M18.1094 8.20312
L18.1094 -20.7969
L9.07812 -20.7969
L9.07812 54.6875
L18.1094 54.6875
L18.1094 46.3906
Q20.9531 51.2656 25.2656 53.625
Q29.5938 56 35.5938 56
Q45.5625 56 51.7812 48.0938
Q58.0156 40.1875 58.0156 27.2969
Q58.0156 14.4062 51.7812 6.48438
Q45.5625 -1.42188 35.5938 -1.42188
Q29.5938 -1.42188 25.2656 0.953125
Q20.9531 3.32812 18.1094 8.20312
M48.6875 27.2969
Q48.6875 37.2031 44.6094 42.8438
Q40.5312 48.4844 33.4062 48.4844
Q26.2656 48.4844 22.1875 42.8438
Q18.1094 37.2031 18.1094 27.2969
Q18.1094 17.3906 22.1875 11.75
Q26.2656 6.10938 33.4062 6.10938
Q40.5312 6.10938 44.6094 11.75
Q48.6875 17.3906 48.6875 27.2969" id="BitstreamVeraSans-Roman-70"/>
      <path d="
M48.7812 52.5938
L48.7812 44.1875
Q44.9688 46.2969 41.1406 47.3438
Q37.3125 48.3906 33.4062 48.3906
Q24.6562 48.3906 19.8125 42.8438
Q14.9844 37.3125 14.9844 27.2969
Q14.9844 17.2812 19.8125 11.7344
Q24.6562 6.20312 33.4062 6.20312
Q37.3125 6.20312 41.1406 7.25
Q44.9688 8.29688 48.7812 10.4062
L48.7812 2.09375
Q45.0156 0.34375 40.9844 -0.53125
Q36.9688 -1.42188 32.4219 -1.42188
Q20.0625 -1.42188 12.7812 6.34375
Q5.51562 14.1094 5.51562 27.2969
Q5.51562 40.6719 12.8594 48.3281
Q20.2188 56 33.0156 56
Q37.1562 56 41.1094 55.1406
Q45.0625 54.2969 48.7812 52.5938" id="BitstreamVeraSans-Roman-63"/>
     </defs>
     <g transform="translate(34.2875 271.33671875)rotate(-90.0)scale(0.1 -0.1)">
      <use xlink:href="#BitstreamVeraSans-Roman-46"/>
      <use x="50.26953125" xlink:href="#BitstreamVeraSans-Roman-72"/>
      <use x="91.3828125" xlink:href="#BitstreamVeraSans-Roman-61"/>
      <use x="152.662109375" xlink:href="#BitstreamVeraSans-Roman-63"/>
      <use x="207.642578125" xlink:href="#BitstreamVeraSans-Roman-74"/>
      <use x="246.8515625" xlink:href="#BitstreamVeraSans-Roman-69"/>
      <use x="274.634765625" xlink:href="#BitstreamVeraSans-Roman-6f"/>
      <use x="335.81640625" xlink:href="#BitstreamVeraSans-Roman-6e"/>
      <use x="399.1953125" xlink:href="#BitstreamVeraSans-Roman-20"/>
      <use x="430.982421875" xlink:href="#BitstreamVeraSans-Roman-6f"/>
      <use x="492.1640625" xlink:href="#BitstreamVeraSans-Roman-66"/>
      <use x="527.369140625" xlink:href="#BitstreamVeraSans-Roman-20"/>
      <use x="559.15625" xlink:href="#BitstreamVeraSans-Roman-63"/>
      <use x="614.13671875" xlink:href="#BitstreamVeraSans-Roman-6f"/>
      <use x="675.318359375" xlink:href="#BitstreamVeraSans-Roman-72"/>
      <use x="714.681640625" xlink:href="#BitstreamVeraSans-Roman-72"/>
      <use x="755.794921875" xlink:href="#BitstreamVeraSans-Roman-75"/>
      <use x="819.173828125" xlink:href="#BitstreamVeraSans-Roman-70"/>
      <use x="882.650390625" xlink:href="#BitstreamVeraSans-Roman-74"/>
      <use x="921.859375" xlink:href="#BitstreamVeraSans-Roman-65"/>
      <use x="983.3828125" xlink:href="#BitstreamVeraSans-Roman-64"/>
      <use x="1046.859375" xlink:href="#BitstreamVeraSans-Roman-20"/>
      <use x="1078.64648438" xlink:href="#BitstreamVeraSans-Roman-62"/>
      <use x="1142.12304688" xlink:href="#BitstreamVeraSans-Roman-69"/>
      <use x="1169.90625" xlink:href="#BitstreamVeraSans-Roman-74"/>
      <use x="1209.11523438" xlink:href="#BitstreamVeraSans-Roman-73"/>
     </g>
    </g>
   </g>
   <g id="patch_3">
    <path d="
M72 43.2
L518.4 43.2" style="fill:none;stroke:#000000;"/>
   </g>
   <g id="patch_4">
    <path d="
M518.4 378
L518.4 43.2" style="fill:none;stroke:#000000;"/>
   </g>
   <g id="patch_5">
    <path d="
M72 378
L518.4 378" style="fill:none;stroke:#000000;"/>
   </g>
   <g id="patch_6">
    <path d="
M72 378
L72 43.2" style="fill:none;stroke:#000000;"/>
   </g>
   <g id="text_14">
    <!-- SDM (M=10000) and Hopfield Error Tolerance (N=256) -->
    <defs>
     <path d="
M9.8125 72.9062
L24.5156 72.9062
L43.1094 23.2969
L61.8125 72.9062
L76.5156 72.9062
L76.5156 0
L66.8906 0
L66.8906 64.0156
L48.0938 14.0156
L38.1875 14.0156
L19.3906 64.0156
L19.3906 0
L9.8125 0
z
" id="BitstreamVeraSans-Roman-4d"/>
     <path d="
M33.0156 40.375
Q26.375 40.375 22.4844 35.8281
Q18.6094 31.2969 18.6094 23.3906
Q18.6094 15.5312 22.4844 10.9531
Q26.375 6.39062 33.0156 6.39062
Q39.6562 6.39062 43.5312 10.9531
Q47.4062 15.5312 47.4062 23.3906
Q47.4062 31.2969 43.5312 35.8281
Q39.6562 40.375 33.0156 40.375
M52.5938 71.2969
L52.5938 62.3125
Q48.875 64.0625 45.0938 64.9844
Q41.3125 65.9219 37.5938 65.9219
Q27.8281 65.9219 22.6719 59.3281
Q17.5312 52.7344 16.7969 39.4062
Q19.6719 43.6562 24.0156 45.9219
Q28.375 48.1875 33.5938 48.1875
Q44.5781 48.1875 50.9531 41.5156
Q57.3281 34.8594 57.3281 23.3906
Q57.3281 12.1562 50.6875 5.35938
Q44.0469 -1.42188 33.0156 -1.42188
Q20.3594 -1.42188 13.6719 8.26562
Q6.98438 17.9688 6.98438 36.375
Q6.98438 53.6562 15.1875 63.9375
Q23.3906 74.2188 37.2031 74.2188
Q40.9219 74.2188 44.7031 73.4844
Q48.4844 72.75 52.5938 71.2969" id="BitstreamVeraSans-Roman-36"/>
     <path d="
M8.01562 75.875
L15.8281 75.875
Q23.1406 64.3594 26.7812 53.3125
Q30.4219 42.2812 30.4219 31.3906
Q30.4219 20.4531 26.7812 9.375
Q23.1406 -1.70312 15.8281 -13.1875
L8.01562 -13.1875
Q14.5 -2 17.7031 9.0625
Q20.9062 20.125 20.9062 31.3906
Q20.9062 42.6719 17.7031 53.6562
Q14.5 64.6562 8.01562 75.875" id="BitstreamVeraSans-Roman-29"/>
     <path d="
M31 75.875
Q24.4688 64.6562 21.2812 53.6562
Q18.1094 42.6719 18.1094 31.3906
Q18.1094 20.125 21.3125 9.0625
Q24.5156 -2 31 -13.1875
L23.1875 -13.1875
Q15.875 -1.70312 12.2344 9.375
Q8.59375 20.4531 8.59375 31.3906
Q8.59375 42.2812 12.2031 53.3125
Q15.8281 64.3594 23.1875 75.875
z
" id="BitstreamVeraSans-Roman-28"/>
     <path d="
M9.42188 75.9844
L18.4062 75.9844
L18.4062 0
L9.42188 0
z
" id="BitstreamVeraSans-Roman-6c"/>
     <path d="
M9.8125 72.9062
L55.9062 72.9062
L55.9062 64.5938
L19.6719 64.5938
L19.6719 43.0156
L54.3906 43.0156
L54.3906 34.7188
L19.6719 34.7188
L19.6719 8.29688
L56.7812 8.29688
L56.7812 0
L9.8125 0
z
" id="BitstreamVeraSans-Roman-45"/>
     <path d="
M19.6719 64.7969
L19.6719 8.10938
L31.5938 8.10938
Q46.6875 8.10938 53.6875 14.9375
Q60.6875 21.7812 60.6875 36.5312
Q60.6875 51.1719 53.6875 57.9844
Q46.6875 64.7969 31.5938 64.7969
z

M9.8125 72.9062
L30.0781 72.9062
Q51.2656 72.9062 61.1719 64.0938
Q71.0938 55.2812 71.0938 36.5312
Q71.0938 17.6719 61.125 8.82812
Q51.1719 0 30.0781 0
L9.8125 0
z
" id="BitstreamVeraSans-Roman-44"/>
     <path d="
M-0.296875 72.9062
L61.375 72.9062
L61.375 64.5938
L35.5 64.5938
L35.5 0
L25.5938 0
L25.5938 64.5938
L-0.296875 64.5938
z
" id="BitstreamVeraSans-Roman-54"/>
     <path d="
M10.5938 45.4062
L73.1875 45.4062
L73.1875 37.2031
L10.5938 37.2031
z

M10.5938 25.4844
L73.1875 25.4844
L73.1875 17.1875
L10.5938 17.1875
z
" id="BitstreamVeraSans-Roman-3d"/>
     <path d="
M53.5156 70.5156
L53.5156 60.8906
Q47.9062 63.5781 42.9219 64.8906
Q37.9375 66.2188 33.2969 66.2188
Q25.25 66.2188 20.875 63.0938
Q16.5 59.9688 16.5 54.2031
Q16.5 49.3594 19.4062 46.8906
Q22.3125 44.4375 30.4219 42.9219
L36.375 41.7031
Q47.4062 39.5938 52.6562 34.2969
Q57.9062 29 57.9062 20.125
Q57.9062 9.51562 50.7969 4.04688
Q43.7031 -1.42188 29.9844 -1.42188
Q24.8125 -1.42188 18.9688 -0.25
Q13.1406 0.921875 6.89062 3.21875
L6.89062 13.375
Q12.8906 10.0156 18.6562 8.29688
Q24.4219 6.59375 29.9844 6.59375
Q38.4219 6.59375 43.0156 9.90625
Q47.6094 13.2344 47.6094 19.3906
Q47.6094 24.75 44.3125 27.7812
Q41.0156 30.8125 33.5 32.3281
L27.4844 33.5
Q16.4531 35.6875 11.5156 40.375
Q6.59375 45.0625 6.59375 53.4219
Q6.59375 63.0938 13.4062 68.6562
Q20.2188 74.2188 32.1719 74.2188
Q37.3125 74.2188 42.625 73.2812
Q47.9531 72.3594 53.5156 70.5156" id="BitstreamVeraSans-Roman-53"/>
     <path d="
M9.8125 72.9062
L19.6719 72.9062
L19.6719 43.0156
L55.5156 43.0156
L55.5156 72.9062
L65.375 72.9062
L65.375 0
L55.5156 0
L55.5156 34.7188
L19.6719 34.7188
L19.6719 0
L9.8125 0
z
" id="BitstreamVeraSans-Roman-48"/>
    </defs>
    <g transform="translate(131.581875 38.2)scale(0.12 -0.12)">
     <use xlink:href="#BitstreamVeraSans-Roman-53"/>
     <use x="63.4765625" xlink:href="#BitstreamVeraSans-Roman-44"/>
     <use x="140.478515625" xlink:href="#BitstreamVeraSans-Roman-4d"/>
     <use x="226.7578125" xlink:href="#BitstreamVeraSans-Roman-20"/>
     <use x="258.544921875" xlink:href="#BitstreamVeraSans-Roman-28"/>
     <use x="297.55859375" xlink:href="#BitstreamVeraSans-Roman-4d"/>
     <use x="383.837890625" xlink:href="#BitstreamVeraSans-Roman-3d"/>
     <use x="467.626953125" xlink:href="#BitstreamVeraSans-Roman-31"/>
     <use x="531.25" xlink:href="#BitstreamVeraSans-Roman-30"/>
     <use x="594.873046875" xlink:href="#BitstreamVeraSans-Roman-30"/>
     <use x="658.49609375" xlink:href="#BitstreamVeraSans-Roman-30"/>
     <use x="722.119140625" xlink:href="#BitstreamVeraSans-Roman-30"/>
     <use x="785.7421875" xlink:href="#BitstreamVeraSans-Roman-29"/>
     <use x="824.755859375" xlink:href="#BitstreamVeraSans-Roman-20"/>
     <use x="856.54296875" xlink:href="#BitstreamVeraSans-Roman-61"/>
     <use x="917.822265625" xlink:href="#BitstreamVeraSans-Roman-6e"/>
     <use x="981.201171875" xlink:href="#BitstreamVeraSans-Roman-64"/>
     <use x="1044.67773438" xlink:href="#BitstreamVeraSans-Roman-20"/>
     <use x="1076.46484375" xlink:href="#BitstreamVeraSans-Roman-48"/>
     <use x="1151.66015625" xlink:href="#BitstreamVeraSans-Roman-6f"/>
     <use x="1212.84179688" xlink:href="#BitstreamVeraSans-Roman-70"/>
     <use x="1276.31835938" xlink:href="#BitstreamVeraSans-Roman-66"/>
     <use x="1311.5234375" xlink:href="#BitstreamVeraSans-Roman-69"/>
     <use x="1339.30664062" xlink:href="#BitstreamVeraSans-Roman-65"/>
     <use x="1400.83007812" xlink:href="#BitstreamVeraSans-Roman-6c"/>
     <use x="1428.61328125" xlink:href="#BitstreamVeraSans-Roman-64"/>
     <use x="1492.08984375" xlink:href="#BitstreamVeraSans-Roman-20"/>
     <use x="1523.87695312" xlink:href="#BitstreamVeraSans-Roman-45"/>
     <use x="1587.06054688" xlink:href="#BitstreamVeraSans-Roman-72"/>
     <use x="1626.42382812" xlink:href="#BitstreamVeraSans-Roman-72"/>
     <use x="1665.28710938" xlink:href="#BitstreamVeraSans-Roman-6f"/>
     <use x="1726.46875" xlink:href="#BitstreamVeraSans-Roman-72"/>
     <use x="1767.58203125" xlink:href="#BitstreamVeraSans-Roman-20"/>
     <use x="1799.36914062" xlink:href="#BitstreamVeraSans-Roman-54"/>
     <use x="1843.453125" xlink:href="#BitstreamVeraSans-Roman-6f"/>
     <use x="1904.63476562" xlink:href="#BitstreamVeraSans-Roman-6c"/>
     <use x="1932.41796875" xlink:href="#BitstreamVeraSans-Roman-65"/>
     <use x="1993.94140625" xlink:href="#BitstreamVeraSans-Roman-72"/>
     <use x="2035.0546875" xlink:href="#BitstreamVeraSans-Roman-61"/>
     <use x="2096.33398438" xlink:href="#BitstreamVeraSans-Roman-6e"/>
     <use x="2159.71289062" xlink:href="#BitstreamVeraSans-Roman-63"/>
     <use x="2214.69335938" xlink:href="#BitstreamVeraSans-Roman-65"/>
     <use x="2276.21679688" xlink:href="#BitstreamVeraSans-Roman-20"/>
     <use x="2308.00390625" xlink:href="#BitstreamVeraSans-Roman-28"/>
     <use x="2347.01757812" xlink:href="#BitstreamVeraSans-Roman-4e"/>
     <use x="2421.82226562" xlink:href="#BitstreamVeraSans-Roman-3d"/>
     <use x="2505.61132812" xlink:href="#BitstreamVeraSans-Roman-32"/>
     <use x="2569.234375" xlink:href="#BitstreamVeraSans-Roman-35"/>
     <use x="2632.85742188" xlink:href="#BitstreamVeraSans-Roman-36"/>
     <use x="2696.48046875" xlink:href="#BitstreamVeraSans-Roman-29"/>
    </g>
   </g>
   <g id="legend_1">
    <g id="patch_7">
     <path d="
M78 264.165
L243.499 264.165
L243.499 49.2
L78 49.2
L78 264.165
z
" style="fill:#ffffff;stroke:#000000;"/>
    </g>
    <g id="line2d_35">
     <path d="
M86.4 58.9181
L103.2 58.9181" style="fill:none;stroke:#ff0000;"/>
    </g>
    <g id="line2d_36"/>
    <g id="text_15">
     <!-- SDM 0% corruption -->
     <defs>
      <path d="
M72.7031 32.0781
Q68.4531 32.0781 66.0312 28.4688
Q63.625 24.8594 63.625 18.4062
Q63.625 12.0625 66.0312 8.42188
Q68.4531 4.78125 72.7031 4.78125
Q76.8594 4.78125 79.2656 8.42188
Q81.6875 12.0625 81.6875 18.4062
Q81.6875 24.8125 79.2656 28.4375
Q76.8594 32.0781 72.7031 32.0781
M72.7031 38.2812
Q80.4219 38.2812 84.9531 32.9062
Q89.5 27.5469 89.5 18.4062
Q89.5 9.28125 84.9375 3.92188
Q80.375 -1.42188 72.7031 -1.42188
Q64.8906 -1.42188 60.3438 3.92188
Q55.8125 9.28125 55.8125 18.4062
Q55.8125 27.5938 60.375 32.9375
Q64.9375 38.2812 72.7031 38.2812
M22.3125 68.0156
Q18.1094 68.0156 15.6875 64.375
Q13.2812 60.75 13.2812 54.3906
Q13.2812 47.9531 15.6719 44.3281
Q18.0625 40.7188 22.3125 40.7188
Q26.5625 40.7188 28.9688 44.3281
Q31.3906 47.9531 31.3906 54.3906
Q31.3906 60.6875 28.9531 64.3438
Q26.5156 68.0156 22.3125 68.0156
M66.4062 74.2188
L74.2188 74.2188
L28.6094 -1.42188
L20.7969 -1.42188
z

M22.3125 74.2188
Q30.0312 74.2188 34.6094 68.875
Q39.2031 63.5312 39.2031 54.3906
Q39.2031 45.1719 34.6406 39.8438
Q30.0781 34.5156 22.3125 34.5156
Q14.5469 34.5156 10.0312 39.8594
Q5.51562 45.2188 5.51562 54.3906
Q5.51562 63.4844 10.0469 68.8438
Q14.5938 74.2188 22.3125 74.2188" id="BitstreamVeraSans-Roman-25"/>
     </defs>
     <g transform="translate(116.4 63.118125)scale(0.12 -0.12)">
      <use xlink:href="#BitstreamVeraSans-Roman-53"/>
      <use x="63.4765625" xlink:href="#BitstreamVeraSans-Roman-44"/>
      <use x="140.478515625" xlink:href="#BitstreamVeraSans-Roman-4d"/>
      <use x="226.7578125" xlink:href="#BitstreamVeraSans-Roman-20"/>
      <use x="258.544921875" xlink:href="#BitstreamVeraSans-Roman-30"/>
      <use x="322.16796875" xlink:href="#BitstreamVeraSans-Roman-25"/>
      <use x="417.1875" xlink:href="#BitstreamVeraSans-Roman-20"/>
      <use x="448.974609375" xlink:href="#BitstreamVeraSans-Roman-63"/>
      <use x="503.955078125" xlink:href="#BitstreamVeraSans-Roman-6f"/>
      <use x="565.13671875" xlink:href="#BitstreamVeraSans-Roman-72"/>
      <use x="604.5" xlink:href="#BitstreamVeraSans-Roman-72"/>
      <use x="645.61328125" xlink:href="#BitstreamVeraSans-Roman-75"/>
      <use x="708.9921875" xlink:href="#BitstreamVeraSans-Roman-70"/>
      <use x="772.46875" xlink:href="#BitstreamVeraSans-Roman-74"/>
      <use x="811.677734375" xlink:href="#BitstreamVeraSans-Roman-69"/>
      <use x="839.4609375" xlink:href="#BitstreamVeraSans-Roman-6f"/>
      <use x="900.642578125" xlink:href="#BitstreamVeraSans-Roman-6e"/>
     </g>
    </g>
    <g id="line2d_37">
     <path d="
M86.4 76.5319
L103.2 76.5319" style="fill:none;stroke:#ff0000;stroke-dasharray:6.000000,6.000000;stroke-dashoffset:0.0;stroke-linecap:butt;"/>
    </g>
    <g id="line2d_38"/>
    <g id="text_16">
     <!-- Hop 0% corruption -->
     <g transform="translate(116.4 80.731875)scale(0.12 -0.12)">
      <use xlink:href="#BitstreamVeraSans-Roman-48"/>
      <use x="75.1953125" xlink:href="#BitstreamVeraSans-Roman-6f"/>
      <use x="136.376953125" xlink:href="#BitstreamVeraSans-Roman-70"/>
      <use x="199.853515625" xlink:href="#BitstreamVeraSans-Roman-20"/>
      <use x="231.640625" xlink:href="#BitstreamVeraSans-Roman-30"/>
      <use x="295.263671875" xlink:href="#BitstreamVeraSans-Roman-25"/>
      <use x="390.283203125" xlink:href="#BitstreamVeraSans-Roman-20"/>
      <use x="422.0703125" xlink:href="#BitstreamVeraSans-Roman-63"/>
      <use x="477.05078125" xlink:href="#BitstreamVeraSans-Roman-6f"/>
      <use x="538.232421875" xlink:href="#BitstreamVeraSans-Roman-72"/>
      <use x="577.595703125" xlink:href="#BitstreamVeraSans-Roman-72"/>
      <use x="618.708984375" xlink:href="#BitstreamVeraSans-Roman-75"/>
      <use x="682.087890625" xlink:href="#BitstreamVeraSans-Roman-70"/>
      <use x="745.564453125" xlink:href="#BitstreamVeraSans-Roman-74"/>
      <use x="784.7734375" xlink:href="#BitstreamVeraSans-Roman-69"/>
      <use x="812.556640625" xlink:href="#BitstreamVeraSans-Roman-6f"/>
      <use x="873.73828125" xlink:href="#BitstreamVeraSans-Roman-6e"/>
     </g>
    </g>
    <g id="line2d_39">
     <path d="
M86.4 94.1456
L103.2 94.1456" style="fill:none;stroke:#ff9933;"/>
    </g>
    <g id="line2d_40"/>
    <g id="text_17">
     <!-- SDM 2% corruption -->
     <g transform="translate(116.4 98.345625)scale(0.12 -0.12)">
      <use xlink:href="#BitstreamVeraSans-Roman-53"/>
      <use x="63.4765625" xlink:href="#BitstreamVeraSans-Roman-44"/>
      <use x="140.478515625" xlink:href="#BitstreamVeraSans-Roman-4d"/>
      <use x="226.7578125" xlink:href="#BitstreamVeraSans-Roman-20"/>
      <use x="258.544921875" xlink:href="#BitstreamVeraSans-Roman-32"/>
      <use x="322.16796875" xlink:href="#BitstreamVeraSans-Roman-25"/>
      <use x="417.1875" xlink:href="#BitstreamVeraSans-Roman-20"/>
      <use x="448.974609375" xlink:href="#BitstreamVeraSans-Roman-63"/>
      <use x="503.955078125" xlink:href="#BitstreamVeraSans-Roman-6f"/>
      <use x="565.13671875" xlink:href="#BitstreamVeraSans-Roman-72"/>
      <use x="604.5" xlink:href="#BitstreamVeraSans-Roman-72"/>
      <use x="645.61328125" xlink:href="#BitstreamVeraSans-Roman-75"/>
      <use x="708.9921875" xlink:href="#BitstreamVeraSans-Roman-70"/>
      <use x="772.46875" xlink:href="#BitstreamVeraSans-Roman-74"/>
      <use x="811.677734375" xlink:href="#BitstreamVeraSans-Roman-69"/>
      <use x="839.4609375" xlink:href="#BitstreamVeraSans-Roman-6f"/>
      <use x="900.642578125" xlink:href="#BitstreamVeraSans-Roman-6e"/>
     </g>
    </g>
    <g id="line2d_41">
     <path d="
M86.4 111.759
L103.2 111.759" style="fill:none;stroke:#ff9933;stroke-dasharray:6.000000,6.000000;stroke-dashoffset:0.0;stroke-linecap:butt;"/>
    </g>
    <g id="line2d_42"/>
    <g id="text_18">
     <!-- Hop 2% corruption -->
     <g transform="translate(116.4 115.959375)scale(0.12 -0.12)">
      <use xlink:href="#BitstreamVeraSans-Roman-48"/>
      <use x="75.1953125" xlink:href="#BitstreamVeraSans-Roman-6f"/>
      <use x="136.376953125" xlink:href="#BitstreamVeraSans-Roman-70"/>
      <use x="199.853515625" xlink:href="#BitstreamVeraSans-Roman-20"/>
      <use x="231.640625" xlink:href="#BitstreamVeraSans-Roman-32"/>
      <use x="295.263671875" xlink:href="#BitstreamVeraSans-Roman-25"/>
      <use x="390.283203125" xlink:href="#BitstreamVeraSans-Roman-20"/>
      <use x="422.0703125" xlink:href="#BitstreamVeraSans-Roman-63"/>
      <use x="477.05078125" xlink:href="#BitstreamVeraSans-Roman-6f"/>
      <use x="538.232421875" xlink:href="#BitstreamVeraSans-Roman-72"/>
      <use x="577.595703125" xlink:href="#BitstreamVeraSans-Roman-72"/>
      <use x="618.708984375" xlink:href="#BitstreamVeraSans-Roman-75"/>
      <use x="682.087890625" xlink:href="#BitstreamVeraSans-Roman-70"/>
      <use x="745.564453125" xlink:href="#BitstreamVeraSans-Roman-74"/>
      <use x="784.7734375" xlink:href="#BitstreamVeraSans-Roman-69"/>
      <use x="812.556640625" xlink:href="#BitstreamVeraSans-Roman-6f"/>
      <use x="873.73828125" xlink:href="#BitstreamVeraSans-Roman-6e"/>
     </g>
    </g>
    <g id="line2d_43">
     <path d="
M86.4 129.373
L103.2 129.373" style="fill:none;stroke:#ffff00;"/>
    </g>
    <g id="line2d_44"/>
    <g id="text_19">
     <!-- SDM 5% corruption -->
     <g transform="translate(116.4 133.573125)scale(0.12 -0.12)">
      <use xlink:href="#BitstreamVeraSans-Roman-53"/>
      <use x="63.4765625" xlink:href="#BitstreamVeraSans-Roman-44"/>
      <use x="140.478515625" xlink:href="#BitstreamVeraSans-Roman-4d"/>
      <use x="226.7578125" xlink:href="#BitstreamVeraSans-Roman-20"/>
      <use x="258.544921875" xlink:href="#BitstreamVeraSans-Roman-35"/>
      <use x="322.16796875" xlink:href="#BitstreamVeraSans-Roman-25"/>
      <use x="417.1875" xlink:href="#BitstreamVeraSans-Roman-20"/>
      <use x="448.974609375" xlink:href="#BitstreamVeraSans-Roman-63"/>
      <use x="503.955078125" xlink:href="#BitstreamVeraSans-Roman-6f"/>
      <use x="565.13671875" xlink:href="#BitstreamVeraSans-Roman-72"/>
      <use x="604.5" xlink:href="#BitstreamVeraSans-Roman-72"/>
      <use x="645.61328125" xlink:href="#BitstreamVeraSans-Roman-75"/>
      <use x="708.9921875" xlink:href="#BitstreamVeraSans-Roman-70"/>
      <use x="772.46875" xlink:href="#BitstreamVeraSans-Roman-74"/>
      <use x="811.677734375" xlink:href="#BitstreamVeraSans-Roman-69"/>
      <use x="839.4609375" xlink:href="#BitstreamVeraSans-Roman-6f"/>
      <use x="900.642578125" xlink:href="#BitstreamVeraSans-Roman-6e"/>
     </g>
    </g>
    <g id="line2d_45">
     <path d="
M86.4 146.987
L103.2 146.987" style="fill:none;stroke:#ffff00;stroke-dasharray:6.000000,6.000000;stroke-dashoffset:0.0;stroke-linecap:butt;"/>
    </g>
    <g id="line2d_46"/>
    <g id="text_20">
     <!-- Hop 5% corruption -->
     <g transform="translate(116.4 151.186875)scale(0.12 -0.12)">
      <use xlink:href="#BitstreamVeraSans-Roman-48"/>
      <use x="75.1953125" xlink:href="#BitstreamVeraSans-Roman-6f"/>
      <use x="136.376953125" xlink:href="#BitstreamVeraSans-Roman-70"/>
      <use x="199.853515625" xlink:href="#BitstreamVeraSans-Roman-20"/>
      <use x="231.640625" xlink:href="#BitstreamVeraSans-Roman-35"/>
      <use x="295.263671875" xlink:href="#BitstreamVeraSans-Roman-25"/>
      <use x="390.283203125" xlink:href="#BitstreamVeraSans-Roman-20"/>
      <use x="422.0703125" xlink:href="#BitstreamVeraSans-Roman-63"/>
      <use x="477.05078125" xlink:href="#BitstreamVeraSans-Roman-6f"/>
      <use x="538.232421875" xlink:href="#BitstreamVeraSans-Roman-72"/>
      <use x="577.595703125" xlink:href="#BitstreamVeraSans-Roman-72"/>
      <use x="618.708984375" xlink:href="#BitstreamVeraSans-Roman-75"/>
      <use x="682.087890625" xlink:href="#BitstreamVeraSans-Roman-70"/>
      <use x="745.564453125" xlink:href="#BitstreamVeraSans-Roman-74"/>
      <use x="784.7734375" xlink:href="#BitstreamVeraSans-Roman-69"/>
      <use x="812.556640625" xlink:href="#BitstreamVeraSans-Roman-6f"/>
      <use x="873.73828125" xlink:href="#BitstreamVeraSans-Roman-6e"/>
     </g>
    </g>
    <g id="line2d_47">
     <path d="
M86.4 164.601
L103.2 164.601" style="fill:none;stroke:#00ff00;"/>
    </g>
    <g id="line2d_48"/>
    <g id="text_21">
     <!-- SDM 10% corruption -->
     <g transform="translate(116.4 168.800625)scale(0.12 -0.12)">
      <use xlink:href="#BitstreamVeraSans-Roman-53"/>
      <use x="63.4765625" xlink:href="#BitstreamVeraSans-Roman-44"/>
      <use x="140.478515625" xlink:href="#BitstreamVeraSans-Roman-4d"/>
      <use x="226.7578125" xlink:href="#BitstreamVeraSans-Roman-20"/>
      <use x="258.544921875" xlink:href="#BitstreamVeraSans-Roman-31"/>
      <use x="322.16796875" xlink:href="#BitstreamVeraSans-Roman-30"/>
      <use x="385.791015625" xlink:href="#BitstreamVeraSans-Roman-25"/>
      <use x="480.810546875" xlink:href="#BitstreamVeraSans-Roman-20"/>
      <use x="512.59765625" xlink:href="#BitstreamVeraSans-Roman-63"/>
      <use x="567.578125" xlink:href="#BitstreamVeraSans-Roman-6f"/>
      <use x="628.759765625" xlink:href="#BitstreamVeraSans-Roman-72"/>
      <use x="668.123046875" xlink:href="#BitstreamVeraSans-Roman-72"/>
      <use x="709.236328125" xlink:href="#BitstreamVeraSans-Roman-75"/>
      <use x="772.615234375" xlink:href="#BitstreamVeraSans-Roman-70"/>
      <use x="836.091796875" xlink:href="#BitstreamVeraSans-Roman-74"/>
      <use x="875.30078125" xlink:href="#BitstreamVeraSans-Roman-69"/>
      <use x="903.083984375" xlink:href="#BitstreamVeraSans-Roman-6f"/>
      <use x="964.265625" xlink:href="#BitstreamVeraSans-Roman-6e"/>
     </g>
    </g>
    <g id="line2d_49">
     <path d="
M86.4 182.214
L103.2 182.214" style="fill:none;stroke:#00ff00;stroke-dasharray:6.000000,6.000000;stroke-dashoffset:0.0;stroke-linecap:butt;"/>
    </g>
    <g id="line2d_50"/>
    <g id="text_22">
     <!-- Hop 10% corruption -->
     <g transform="translate(116.4 186.414375)scale(0.12 -0.12)">
      <use xlink:href="#BitstreamVeraSans-Roman-48"/>
      <use x="75.1953125" xlink:href="#BitstreamVeraSans-Roman-6f"/>
      <use x="136.376953125" xlink:href="#BitstreamVeraSans-Roman-70"/>
      <use x="199.853515625" xlink:href="#BitstreamVeraSans-Roman-20"/>
      <use x="231.640625" xlink:href="#BitstreamVeraSans-Roman-31"/>
      <use x="295.263671875" xlink:href="#BitstreamVeraSans-Roman-30"/>
      <use x="358.88671875" xlink:href="#BitstreamVeraSans-Roman-25"/>
      <use x="453.90625" xlink:href="#BitstreamVeraSans-Roman-20"/>
      <use x="485.693359375" xlink:href="#BitstreamVeraSans-Roman-63"/>
      <use x="540.673828125" xlink:href="#BitstreamVeraSans-Roman-6f"/>
      <use x="601.85546875" xlink:href="#BitstreamVeraSans-Roman-72"/>
      <use x="641.21875" xlink:href="#BitstreamVeraSans-Roman-72"/>
      <use x="682.33203125" xlink:href="#BitstreamVeraSans-Roman-75"/>
      <use x="745.7109375" xlink:href="#BitstreamVeraSans-Roman-70"/>
      <use x="809.1875" xlink:href="#BitstreamVeraSans-Roman-74"/>
      <use x="848.396484375" xlink:href="#BitstreamVeraSans-Roman-69"/>
      <use x="876.1796875" xlink:href="#BitstreamVeraSans-Roman-6f"/>
      <use x="937.361328125" xlink:href="#BitstreamVeraSans-Roman-6e"/>
     </g>
    </g>
    <g id="line2d_51">
     <path d="
M86.4 199.828
L103.2 199.828" style="fill:none;stroke:#00ffff;"/>
    </g>
    <g id="line2d_52"/>
    <g id="text_23">
     <!-- SDM 15% corruption -->
     <g transform="translate(116.4 204.028125)scale(0.12 -0.12)">
      <use xlink:href="#BitstreamVeraSans-Roman-53"/>
      <use x="63.4765625" xlink:href="#BitstreamVeraSans-Roman-44"/>
      <use x="140.478515625" xlink:href="#BitstreamVeraSans-Roman-4d"/>
      <use x="226.7578125" xlink:href="#BitstreamVeraSans-Roman-20"/>
      <use x="258.544921875" xlink:href="#BitstreamVeraSans-Roman-31"/>
      <use x="322.16796875" xlink:href="#BitstreamVeraSans-Roman-35"/>
      <use x="385.791015625" xlink:href="#BitstreamVeraSans-Roman-25"/>
      <use x="480.810546875" xlink:href="#BitstreamVeraSans-Roman-20"/>
      <use x="512.59765625" xlink:href="#BitstreamVeraSans-Roman-63"/>
      <use x="567.578125" xlink:href="#BitstreamVeraSans-Roman-6f"/>
      <use x="628.759765625" xlink:href="#BitstreamVeraSans-Roman-72"/>
      <use x="668.123046875" xlink:href="#BitstreamVeraSans-Roman-72"/>
      <use x="709.236328125" xlink:href="#BitstreamVeraSans-Roman-75"/>
      <use x="772.615234375" xlink:href="#BitstreamVeraSans-Roman-70"/>
      <use x="836.091796875" xlink:href="#BitstreamVeraSans-Roman-74"/>
      <use x="875.30078125" xlink:href="#BitstreamVeraSans-Roman-69"/>
      <use x="903.083984375" xlink:href="#BitstreamVeraSans-Roman-6f"/>
      <use x="964.265625" xlink:href="#BitstreamVeraSans-Roman-6e"/>
     </g>
    </g>
    <g id="line2d_53">
     <path d="
M86.4 217.442
L103.2 217.442" style="fill:none;stroke:#00ffff;stroke-dasharray:6.000000,6.000000;stroke-dashoffset:0.0;stroke-linecap:butt;"/>
    </g>
    <g id="line2d_54"/>
    <g id="text_24">
     <!-- Hop 15% corruption -->
     <g transform="translate(116.4 221.641875)scale(0.12 -0.12)">
      <use xlink:href="#BitstreamVeraSans-Roman-48"/>
      <use x="75.1953125" xlink:href="#BitstreamVeraSans-Roman-6f"/>
      <use x="136.376953125" xlink:href="#BitstreamVeraSans-Roman-70"/>
      <use x="199.853515625" xlink:href="#BitstreamVeraSans-Roman-20"/>
      <use x="231.640625" xlink:href="#BitstreamVeraSans-Roman-31"/>
      <use x="295.263671875" xlink:href="#BitstreamVeraSans-Roman-35"/>
      <use x="358.88671875" xlink:href="#BitstreamVeraSans-Roman-25"/>
      <use x="453.90625" xlink:href="#BitstreamVeraSans-Roman-20"/>
      <use x="485.693359375" xlink:href="#BitstreamVeraSans-Roman-63"/>
      <use x="540.673828125" xlink:href="#BitstreamVeraSans-Roman-6f"/>
      <use x="601.85546875" xlink:href="#BitstreamVeraSans-Roman-72"/>
      <use x="641.21875" xlink:href="#BitstreamVeraSans-Roman-72"/>
      <use x="682.33203125" xlink:href="#BitstreamVeraSans-Roman-75"/>
      <use x="745.7109375" xlink:href="#BitstreamVeraSans-Roman-70"/>
      <use x="809.1875" xlink:href="#BitstreamVeraSans-Roman-74"/>
      <use x="848.396484375" xlink:href="#BitstreamVeraSans-Roman-69"/>
      <use x="876.1796875" xlink:href="#BitstreamVeraSans-Roman-6f"/>
      <use x="937.361328125" xlink:href="#BitstreamVeraSans-Roman-6e"/>
     </g>
    </g>
    <g id="line2d_55">
     <path d="
M86.4 235.056
L103.2 235.056" style="fill:none;stroke:#0000ff;"/>
    </g>
    <g id="line2d_56"/>
    <g id="text_25">
     <!-- SDM 20% corruption -->
     <g transform="translate(116.4 239.255625)scale(0.12 -0.12)">
      <use xlink:href="#BitstreamVeraSans-Roman-53"/>
      <use x="63.4765625" xlink:href="#BitstreamVeraSans-Roman-44"/>
      <use x="140.478515625" xlink:href="#BitstreamVeraSans-Roman-4d"/>
      <use x="226.7578125" xlink:href="#BitstreamVeraSans-Roman-20"/>
      <use x="258.544921875" xlink:href="#BitstreamVeraSans-Roman-32"/>
      <use x="322.16796875" xlink:href="#BitstreamVeraSans-Roman-30"/>
      <use x="385.791015625" xlink:href="#BitstreamVeraSans-Roman-25"/>
      <use x="480.810546875" xlink:href="#BitstreamVeraSans-Roman-20"/>
      <use x="512.59765625" xlink:href="#BitstreamVeraSans-Roman-63"/>
      <use x="567.578125" xlink:href="#BitstreamVeraSans-Roman-6f"/>
      <use x="628.759765625" xlink:href="#BitstreamVeraSans-Roman-72"/>
      <use x="668.123046875" xlink:href="#BitstreamVeraSans-Roman-72"/>
      <use x="709.236328125" xlink:href="#BitstreamVeraSans-Roman-75"/>
      <use x="772.615234375" xlink:href="#BitstreamVeraSans-Roman-70"/>
      <use x="836.091796875" xlink:href="#BitstreamVeraSans-Roman-74"/>
      <use x="875.30078125" xlink:href="#BitstreamVeraSans-Roman-69"/>
      <use x="903.083984375" xlink:href="#BitstreamVeraSans-Roman-6f"/>
      <use x="964.265625" xlink:href="#BitstreamVeraSans-Roman-6e"/>
     </g>
    </g>
    <g id="line2d_57">
     <path d="
M86.4 252.669
L103.2 252.669" style="fill:none;stroke:#0000ff;stroke-dasharray:6.000000,6.000000;stroke-dashoffset:0.0;stroke-linecap:butt;"/>
    </g>
    <g id="line2d_58"/>
    <g id="text_26">
     <!-- Hop 20% corruption -->
     <g transform="translate(116.4 256.869375)scale(0.12 -0.12)">
      <use xlink:href="#BitstreamVeraSans-Roman-48"/>
      <use x="75.1953125" xlink:href="#BitstreamVeraSans-Roman-6f"/>
      <use x="136.376953125" xlink:href="#BitstreamVeraSans-Roman-70"/>
      <use x="199.853515625" xlink:href="#BitstreamVeraSans-Roman-20"/>
      <use x="231.640625" xlink:href="#BitstreamVeraSans-Roman-32"/>
      <use x="295.263671875" xlink:href="#BitstreamVeraSans-Roman-30"/>
      <use x="358.88671875" xlink:href="#BitstreamVeraSans-Roman-25"/>
      <use x="453.90625" xlink:href="#BitstreamVeraSans-Roman-20"/>
      <use x="485.693359375" xlink:href="#BitstreamVeraSans-Roman-63"/>
      <use x="540.673828125" xlink:href="#BitstreamVeraSans-Roman-6f"/>
      <use x="601.85546875" xlink:href="#BitstreamVeraSans-Roman-72"/>
      <use x="641.21875" xlink:href="#BitstreamVeraSans-Roman-72"/>
      <use x="682.33203125" xlink:href="#BitstreamVeraSans-Roman-75"/>
      <use x="745.7109375" xlink:href="#BitstreamVeraSans-Roman-70"/>
      <use x="809.1875" xlink:href="#BitstreamVeraSans-Roman-74"/>
      <use x="848.396484375" xlink:href="#BitstreamVeraSans-Roman-69"/>
      <use x="876.1796875" xlink:href="#BitstreamVeraSans-Roman-6f"/>
      <use x="937.361328125" xlink:href="#BitstreamVeraSans-Roman-6e"/>
     </g>
    </g>
   </g>
  </g>
 </g>
 <defs>
  <clipPath id="p332b41defa">
   <rect height="334.8" width="446.4" x="72.0" y="43.2"/>
  </clipPath>
 </defs>
</svg>
